# xmcd
# 
# Track frame offsets:
#     150
#     50405
#     97449
#     152354
#     199038
#     242242
#     302246
# 
# Disc length: 4665
# 
# Revision: 0
# Processed by: cddbd v1.5.2PL0 Copyright (c) Steve Scherf et al.
# Submitted via: BonkEnc v1.0.8
# 
DISCID=5b123707
DTITLE=East of Oceans - 121 Years
DYEAR=2012
DGENRE=Electronic
TTITLE0=3 Years Gone
TTITLE1=10 Days We Shared
TTITLE2=1 Night To Rule the World
TTITLE3=1983
TTITLE4=9 Winters To Tell You
TTITLE5=1995 To Forever
TTITLE6=2 Summers Of Love
EXTD=
EXTT0=
EXTT1=
EXTT2=
EXTT3=
EXTT4=
EXTT5=
EXTT6=
PLAYORDER=
